<?xml version="1.0" encoding="UTF-8"?>
<svg version="1.1" xmlns="http://www.w3.org/2000/svg" width="200" height="94">
<path d="M0 0 C2.23443348 -0.00966869 4.46793236 -0.04067264 6.70214844 -0.07226562 C8.13183049 -0.07879971 9.56151911 -0.08404859 10.99121094 -0.08789062 C12.93592285 -0.10190918 12.93592285 -0.10190918 14.91992188 -0.11621094 C18.82085272 0.27143942 21.20032536 1.16439268 24.50683594 3.24023438 C26.89281761 6.81920689 27.29263096 8.95613492 27.50683594 13.24023438 C26.52420841 16.77911755 25.13088874 19.61618157 22.50683594 22.24023438 C23.31121094 23.16835937 24.11558594 24.09648438 24.94433594 25.05273438 C28.43615746 29.08175921 28.85114606 32.76253207 28.79199219 37.95117188 C28.3490707 41.50667861 26.8350867 43.58861545 24.50683594 46.24023438 C20.84864867 48.77498601 16.99685599 48.51345123 12.71386719 48.47070312 C11.96723312 48.4702449 11.22059906 48.46978668 10.45133972 48.46931458 C8.87875777 48.4663012 7.30617855 48.45844231 5.73364258 48.44604492 C3.31743906 48.42771999 0.90161751 48.42553582 -1.51464844 48.42578125 C-3.04264657 48.42086833 -4.57064209 48.415041 -6.09863281 48.40820312 C-7.1876313 48.40653389 -7.1876313 48.40653389 -8.29862976 48.40483093 C-13.37709064 48.3563078 -13.37709064 48.3563078 -14.49316406 47.24023438 C-14.5649637 45.720954 -14.57708414 44.19855956 -14.55566406 42.67773438 C-14.54664062 41.85144531 -14.53761719 41.02515625 -14.52832031 40.17382812 C-14.51671875 39.53574219 -14.50511719 38.89765625 -14.49316406 38.24023438 C-12.51316406 37.74523437 -12.51316406 37.74523437 -10.49316406 37.24023438 C-10.49316406 39.55023438 -10.49316406 41.86023438 -10.49316406 44.24023438 C-6.43597929 44.14646629 -2.37932348 44.04032165 1.67724609 43.92285156 C3.05638837 43.884641 4.43562761 43.84977435 5.81494141 43.81835938 C7.80100561 43.77253814 9.78675273 43.71357175 11.77246094 43.65429688 C12.96645508 43.62287598 14.16044922 43.59145508 15.390625 43.55908203 C18.31458133 43.25990568 20.03411205 42.765616 22.50683594 41.24023438 C22.61537084 39.49161646 22.69267021 37.74104196 22.75683594 35.99023438 C22.80324219 35.01570313 22.84964844 34.04117188 22.89746094 33.03710938 C22.68165011 30.20571121 22.68165011 30.20571121 21.16308594 27.92773438 C16.9513265 25.25202838 12.64901937 25.56189086 7.75683594 25.49023438 C6.77328125 25.46058594 5.78972656 25.4309375 4.77636719 25.40039062 C2.35310818 25.32981027 -0.0691956 25.27705736 -2.49316406 25.24023438 C-2.82316406 23.92023438 -3.15316406 22.60023437 -3.49316406 21.24023438 C-2.90825195 21.21517822 -2.32333984 21.19012207 -1.72070312 21.16430664 C0.93868065 21.04800475 3.59773997 20.92543371 6.25683594 20.80273438 C7.17722656 20.76341797 8.09761719 20.72410156 9.04589844 20.68359375 C9.93535156 20.64169922 10.82480469 20.59980469 11.74121094 20.55664062 C12.5581543 20.51998291 13.37509766 20.4833252 14.21679688 20.44555664 C16.41027824 20.24889163 18.39080007 19.83722843 20.50683594 19.24023438 C21.83314158 15.09552923 22.49068305 10.20792859 20.50683594 6.24023438 C15.07751341 4.27554711 8.75484518 4.93068765 3.06933594 4.86523438 C1.84150391 4.82785156 0.61367187 4.79046875 -0.65136719 4.75195312 C-7.54568806 4.53847138 -7.54568806 4.53847138 -13.55957031 7.42773438 C-14.19765625 8.35585938 -14.83574219 9.28398438 -15.49316406 10.24023438 C-16.24597656 11.11421875 -16.99878906 11.98820312 -17.77441406 12.88867188 C-18.87269531 14.23832031 -18.87269531 14.23832031 -19.99316406 15.61523438 C-20.72535156 16.50984375 -21.45753906 17.40445313 -22.21191406 18.32617188 C-22.96472656 19.2878125 -23.71753906 20.24945313 -24.49316406 21.24023438 C-24.94393311 21.74981689 -25.39470215 22.25939941 -25.85913086 22.78442383 C-30.00581079 27.81400752 -30.26436772 32.30433204 -30.30566406 38.67773438 C-30.33080078 39.60005859 -30.3559375 40.52238281 -30.38183594 41.47265625 C-30.44028902 43.72894533 -30.47687207 45.9833137 -30.49316406 48.24023438 C-31.81316406 48.24023438 -33.13316406 48.24023438 -34.49316406 48.24023438 C-35.85822428 37.35225406 -36.32504427 28.54661581 -29.72998047 19.30981445 C-27.2992712 16.22193169 -24.80558278 13.20789328 -22.21044922 10.25683594 C-20.56597522 8.32573625 -19.10388629 6.34806121 -17.66113281 4.26367188 C-13.39990996 -1.67900648 -6.70858324 0.01758475 0 0 Z " fill="#E5593D" transform="translate(85.4931640625,42.759765625)"/>
<path d="M0 0 C5.72021484 0.73535156 5.72021484 0.73535156 8.23828125 3.1171875 C8.92277344 4.02726562 9.60726562 4.93734375 10.3125 5.875 C11.07433594 6.85855469 11.83617187 7.84210937 12.62109375 8.85546875 C13.40613281 9.89316406 14.19117188 10.93085937 15 12 C16.6073456 14.0776642 18.23674188 16.13368372 19.875 18.1875 C20.59429687 19.10917969 21.31359375 20.03085937 22.0546875 20.98046875 C22.69664062 21.64691406 23.33859375 22.31335938 24 23 C24.99 23 25.98 23 27 23 C28.85379996 20.89463429 30.52285209 18.80973169 32.1875 16.5625 C33.16998628 15.27850051 34.15437052 13.99595112 35.140625 12.71484375 C35.62466797 12.08304199 36.10871094 11.45124023 36.60742188 10.80029297 C38.4956333 8.35925667 40.43718128 5.9749985 42.4375 3.625 C43.03433594 2.91601562 43.63117188 2.20703125 44.24609375 1.4765625 C46 0 46 0 50 0 C48.68634784 2.82338336 47.22203388 5.13934873 45.2421875 7.5390625 C44.70231201 8.19777344 44.16243652 8.85648438 43.60620117 9.53515625 C43.03490479 10.22480469 42.4636084 10.91445313 41.875 11.625 C40.70153119 13.05444807 39.52835396 14.48413555 38.35546875 15.9140625 C37.7836084 16.60918945 37.21174805 17.30431641 36.62255859 18.02050781 C33.37546578 21.98190241 30.18914319 25.99189255 27 30 C22.98328506 29.47647311 21.40895161 27.62345231 18.8125 24.625 C18.11769531 23.83351563 17.42289063 23.04203125 16.70703125 22.2265625 C12.75974593 17.52171737 8.88895806 12.75317096 5 8 C4.67 21.2 4.34 34.4 4 48 C2.68 48 1.36 48 0 48 C-2.57891803 37.02430836 -0.92117923 24.80332439 -0.5 13.625 C-0.45159225 12.29167502 -0.40341426 10.95834168 -0.35546875 9.625 C-0.23922156 6.41657764 -0.1207029 3.20825728 0 0 Z " fill="#50BDB4" transform="translate(117,43)"/>
<path d="M0 0 C-0.49126929 6.36559573 -0.99655747 12.69264693 -2 19 C-2.66 19 -3.32 19 -4 19 C-5.38232443 17.37373596 -6.71937515 15.7074998 -8 14 C-9.32 14.33 -10.64 14.66 -12 15 C-12 13.35 -12 11.7 -12 10 C-15.63 9.01 -19.26 8.02 -23 7 C-20.36308724 5.24205816 -18.80005659 4.52272008 -15.83984375 3.7109375 C-14.6497168 3.38222656 -14.6497168 3.38222656 -13.43554688 3.046875 C-12.61119141 2.82515625 -11.78683594 2.6034375 -10.9375 2.375 C-10.10927734 2.14554688 -9.28105469 1.91609375 -8.42773438 1.6796875 C-2.28387742 0 -2.28387742 0 0 0 Z " fill="#2AB9AB" transform="translate(119,24)"/>
<path d="M0 0 C0 12.21 0 24.42 0 37 C-1.32 37 -2.64 37 -4 37 C-4.07415168 32.21284377 -4.12860204 27.42602173 -4.16479492 22.63842773 C-4.17988243 21.00978777 -4.20035506 19.38118844 -4.22631836 17.75268555 C-4.26270449 15.41184465 -4.2797262 13.07154081 -4.29296875 10.73046875 C-4.30845261 10.00224411 -4.32393646 9.27401947 -4.33988953 8.52372742 C-4.34157393 3.46530355 -4.34157393 3.46530355 -2.54418945 1.0168457 C-1 0 -1 0 0 0 Z " fill="#37B3A8" transform="translate(167,54)"/>
<path d="M0 0 C-1.3200823 2.84124191 -2.79846624 5.16223933 -4.79296875 7.57421875 C-5.33800049 8.23808594 -5.88303223 8.90195312 -6.44458008 9.5859375 C-7.01974365 10.27945313 -7.59490723 10.97296875 -8.1875 11.6875 C-9.36268693 13.11790839 -10.53717084 14.54889467 -11.7109375 15.98046875 C-12.27651367 16.66931152 -12.84208984 17.3581543 -13.42480469 18.06787109 C-16.35202417 21.65838798 -19.18803353 25.31888025 -22 29 C-22.33 28.01 -22.66 27.02 -23 26 C-23.99 26 -24.98 26 -26 26 C-24.55911273 23.11822545 -22.27535694 21.27207833 -20 19 C-18.51830462 17.24866748 -17.05996543 15.4773215 -15.625 13.6875 C-14.85027344 12.73617187 -14.07554687 11.78484375 -13.27734375 10.8046875 C-11.84733175 9.04354065 -10.42210823 7.27848347 -9.00390625 5.5078125 C-8.40449219 4.78335938 -7.80507812 4.05890625 -7.1875 3.3125 C-6.66542969 2.66925781 -6.14335937 2.02601562 -5.60546875 1.36328125 C-4 0 -4 0 0 0 Z " fill="#45BFB4" transform="translate(167,43)"/>
<path d="M0 0 C2.475 0.495 2.475 0.495 5 1 C5.33 2.32 5.66 3.64 6 5 C5.01 5 4.02 5 3 5 C3 18.53 3 32.06 3 46 C2.34 46 1.68 46 1 46 C-0.2418957 30.67589409 -0.101915 15.36407828 0 0 Z " fill="#20B1A4" transform="translate(117,43)"/>
<path d="M0 0 C2.89995262 0.34231686 4.58315745 0.62216126 6.77685547 2.6105957 C7.56406982 3.63286255 7.56406982 3.63286255 8.3671875 4.67578125 C8.94210938 5.42150391 9.51703125 6.16722656 10.109375 6.93554688 C10.69203125 7.71994141 11.2746875 8.50433594 11.875 9.3125 C12.78378906 10.47168945 12.78378906 10.47168945 13.7109375 11.65429688 C16.99836705 15.99893389 16.99836705 15.99893389 18 18 C17.66064453 20.25463867 17.66064453 20.25463867 17 22 C13.00167764 20.66722588 11.46895464 18.0182014 9.0625 14.75 C8.19963278 13.59864793 7.33635684 12.44760204 6.47265625 11.296875 C6.05902832 10.73806641 5.64540039 10.17925781 5.21923828 9.60351562 C4.09017228 8.11859262 2.88936654 6.68896556 1.68359375 5.265625 C0 3 0 3 0 0 Z " fill="#E35A41" transform="translate(31,43)"/>
<path d="M0 0 C0.99 0 1.98 0 3 0 C3 2.31 3 4.62 3 7 C11.91 7 20.82 7 30 7 C30 7.33 30 7.66 30 8 C22.08 8 14.16 8 6 8 C6 8.66 6 9.32 6 10 C15.24 10 24.48 10 34 10 C34 10.33 34 10.66 34 11 C29.17619198 11.0246519 24.35242033 11.04283693 19.52856445 11.05493164 C17.88630536 11.05997174 16.24405077 11.06680378 14.60180664 11.07543945 C12.24624521 11.08751926 9.89074291 11.09323139 7.53515625 11.09765625 C6.79660904 11.10281754 6.05806183 11.10797882 5.2971344 11.11329651 C3.53101912 11.1134925 1.76502854 11.06194719 0 11 C-1 10 -1 10 -1.1328125 7.96875 C-1.13023438 7.1540625 -1.12765625 6.339375 -1.125 5.5 C-1.12757812 4.6853125 -1.13015625 3.870625 -1.1328125 3.03125 C-1 1 -1 1 0 0 Z " fill="#DF6A53" transform="translate(72,80)"/>
<path d="M0 0 C5.61 0 11.22 0 17 0 C15.66666667 4 14.33333333 8 13 12 C12.34 12 11.68 12 11 12 C9.97971135 10.68212715 8.98028616 9.34789347 8 8 C7.34 7.67 6.68 7.34 6 7 C6.33 6.34 6.66 5.68 7 5 C3.535 3.02 3.535 3.02 0 1 C0 0.67 0 0.34 0 0 Z " fill="#CE7F6A" transform="translate(118,13)"/>
<path d="M0 0 C0.99 0 1.98 0 3 0 C3 7.59 3 15.18 3 23 C1.68 23 0.36 23 -1 23 C-1.02894547 19.54168414 -1.04678 16.08339928 -1.0625 12.625 C-1.07087891 11.64015625 -1.07925781 10.6553125 -1.08789062 9.640625 C-1.09111328 8.69960937 -1.09433594 7.75859375 -1.09765625 6.7890625 C-1.10289307 5.91975098 -1.10812988 5.05043945 -1.11352539 4.15478516 C-1 2 -1 2 0 0 Z " fill="#D94E31" transform="translate(52,68)"/>
<path d="M0 0 C-0.99 0.495 -0.99 0.495 -2 1 C-2 1.66 -2 2.32 -2 3 C-5.27748829 6.13182214 -7.25629227 7.89461107 -11.84375 8.171875 C-19.42678571 7.57321429 -19.42678571 7.57321429 -22 5 C-19.27318889 4.15820605 -16.54398557 3.32636931 -13.8125 2.5 C-12.65911133 2.14228516 -12.65911133 2.14228516 -11.48242188 1.77734375 C-7.55643872 0.59786383 -4.14951179 -0.3326262 0 0 Z " fill="#DE5537" transform="translate(118,25)"/>
<path d="M0 0 C-1.6281644 3.75730247 -4.01401917 6.616823 -6.625 9.75 C-7.85089844 11.22726563 -7.85089844 11.22726563 -9.1015625 12.734375 C-9.72804687 13.48203125 -10.35453125 14.2296875 -11 15 C-11.66 14.67 -12.32 14.34 -13 14 C-11.48725391 7.27668405 -7.3039258 0 0 0 Z " fill="#31B5AB" transform="translate(167,43)"/>
<path d="M0 0 C0 0.99 0 1.98 0 3 C-9.24 3 -18.48 3 -28 3 C-28 2.34 -28 1.68 -28 1 C-24.08339071 0.83196656 -20.16670399 0.66581012 -16.25 0.5 C-15.13882813 0.45230469 -14.02765625 0.40460938 -12.8828125 0.35546875 C-11.27792969 0.28779297 -11.27792969 0.28779297 -9.640625 0.21875 C-8.65610352 0.17685547 -7.67158203 0.13496094 -6.65722656 0.09179688 C-4.43926319 0.01517484 -2.21928648 0 0 0 Z " fill="#E33B1A" transform="translate(106,87)"/>
<path d="M0 0 C2.5 1.8125 2.5 1.8125 5 4 C5 4.99 5 5.98 5 7 C5.99 7 6.98 7 8 7 C8 8.32 8 9.64 8 11 C4.4628562 10.43867066 3.00738321 9.30442253 0.75 6.5625 C-0.03117188 5.63630859 -0.03117188 5.63630859 -0.828125 4.69140625 C-2 3 -2 3 -2 1 C-1.34 0.67 -0.68 0.34 0 0 Z " fill="#3AB8AB" transform="translate(136,62)"/>
<path d="M0 0 C0.66 0 1.32 0 2 0 C0.66666667 4 -0.66666667 8 -2 12 C-2.66 12 -3.32 12 -4 12 C-5.4783226 9.04335481 -5.06032783 6.25770263 -5 3 C-3.68 3 -2.36 3 -1 3 C-0.67 2.01 -0.34 1.02 0 0 Z " fill="#4EB4A5" transform="translate(133,13)"/>
<path d="M0 0 C1.28571429 7.42857143 1.28571429 7.42857143 0 11 C-1.32 10.67 -2.64 10.34 -4 10 C-4 7.03 -4 4.06 -4 1 C-2 0 -2 0 0 0 Z " fill="#E85335" transform="translate(112,49)"/>
<path d="M0 0 C3.3 0.33 6.6 0.66 10 1 C8.125 5.75 8.125 5.75 7 8 C6.34 8 5.68 8 5 8 C3 5 3 5 3 2 C2.01 1.67 1.02 1.34 0 1 C0 0.67 0 0.34 0 0 Z " fill="#90C3B9" transform="translate(137,5)"/>
<path d="M0 0 C1.32 0 2.64 0 4 0 C3.39305845 3.15330554 2.3583335 5.18888867 0.4375 7.75 C-0.24505859 8.67039062 -0.24505859 8.67039062 -0.94140625 9.609375 C-1.46541016 10.29773438 -1.46541016 10.29773438 -2 11 C-2.66 10.67 -3.32 10.34 -4 10 C-2.99806563 6.20696275 -2.18975773 3.28463659 0 0 Z " fill="#E35334" transform="translate(64,52)"/>
<path d="M0 0 C0.33 0.66 0.66 1.32 1 2 C2.32 2 3.64 2 5 2 C5 4 5 4 2.625 6.5625 C0 9 0 9 -2 10 C-2 9.34 -2 8.68 -2 8 C-2.99 7.67 -3.98 7.34 -5 7 C-3.35 4.69 -1.7 2.38 0 0 Z " fill="#E75A45" transform="translate(70,44)"/>
<path d="M0 0 C0.33 0 0.66 0 1 0 C1.19491452 1.45736087 1.38069358 2.91594593 1.5625 4.375 C1.66691406 5.18710938 1.77132812 5.99921875 1.87890625 6.8359375 C2 9 2 9 1 11 C1.66 11 2.32 11 3 11 C2.25 12.9375 2.25 12.9375 1 15 C-1.125 15.75 -1.125 15.75 -3 16 C-3 15.01 -3 14.02 -3 13 C-3.66 12.67 -4.32 12.34 -5 12 C-4.35546875 11.77570313 -3.7109375 11.55140625 -3.046875 11.3203125 C-0.75611148 10.17110544 -0.75611148 10.17110544 -0.390625 7.6171875 C-0.34421875 6.71226563 -0.2978125 5.80734375 -0.25 4.875 C-0.19328125 3.96492188 -0.1365625 3.05484375 -0.078125 2.1171875 C-0.05234375 1.41851562 -0.0265625 0.71984375 0 0 Z " fill="#EC735B" transform="translate(109,74)"/>
<path d="M0 0 C-0.99 0.495 -0.99 0.495 -2 1 C-2 1.66 -2 2.32 -2 3 C-5.5486135 5.36574234 -6.5764525 5.10865265 -10.6875 4.625 C-12.17830078 4.45871094 -12.17830078 4.45871094 -13.69921875 4.2890625 C-14.45847656 4.19367187 -15.21773438 4.09828125 -16 4 C-10.87447606 1.33068994 -5.83702609 -0.35375916 0 0 Z " fill="#E86950" transform="translate(118,25)"/>
<path d="M0 0 C2.105184 3.157776 2.25289344 3.95397134 2.1875 7.5625 C2.18105469 8.34753906 2.17460938 9.13257812 2.16796875 9.94140625 C2 12 2 12 1 14 C0.01 14 -0.98 14 -2 14 C-1.85866501 12.22880197 -1.71176792 10.45804713 -1.5625 8.6875 C-1.48128906 7.70136719 -1.40007812 6.71523437 -1.31640625 5.69921875 C-1 3 -1 3 0 0 Z " fill="#EA674B" transform="translate(112,71)"/>
<path d="M0 0 C2.375 1.25 2.375 1.25 3.375 4.25 C2.715 4.91 2.055 5.57 1.375 6.25 C0.715 6.25 0.055 6.25 -0.625 6.25 C-0.955 5.59 -1.285 4.93 -1.625 4.25 C-3.64169827 3.11649466 -3.64169827 3.11649466 -5.625 2.25 C-5.625 1.59 -5.625 0.93 -5.625 0.25 C-2.625 -0.75 -2.625 -0.75 0 0 Z " fill="#E96045" transform="translate(107.625,44.75)"/>
<path d="M0 0 C-1.44253657 3.36591866 -3.33264727 5.51047079 -6 8 C-6.33 7.34 -6.66 6.68 -7 6 C-7.66 5.67 -8.32 5.34 -9 5 C-4.5 0 -4.5 0 0 0 Z " fill="#4FBEB1" transform="translate(167,43)"/>
<path d="M0 0 C0.66 0 1.32 0 2 0 C1.67 3.96 1.34 7.92 1 12 C0.67 12 0.34 12 0 12 C0 9.69 0 7.38 0 5 C-1.32 5.99 -2.64 6.98 -4 8 C-4.66 7.67 -5.32 7.34 -6 7 C-4.625 5.5 -4.625 5.5 -3 4 C-2.34 4 -1.68 4 -1 4 C-0.67 2.68 -0.34 1.36 0 0 Z " fill="#63B1A3" transform="translate(117,24)"/>
<path d="M0 0 C6.93 0 13.86 0 21 0 C21 0.33 21 0.66 21 1 C15.06 1 9.12 1 3 1 C3 1.66 3 2.32 3 3 C2.01 3 1.02 3 0 3 C0 2.01 0 1.02 0 0 Z " fill="#D74E37" transform="translate(82,64)"/>
<path d="M0 0 C1.65 1.65 3.3 3.3 5 5 C4.01 5.99 3.02 6.98 2 8 C0.68 7.34 -0.64 6.68 -2 6 C-2 5.34 -2 4.68 -2 4 C-1.01 4 -0.02 4 1 4 C0.67 2.68 0.34 1.36 0 0 Z " fill="#4AC2BA" transform="translate(122,44)"/>
<path d="M0 0 C2.4375 0.375 2.4375 0.375 5 1 C5.33 1.66 5.66 2.32 6 3 C5.34 3 4.68 3 4 3 C3.67 4.32 3.34 5.64 3 7 C0 3.375 0 3.375 0 0 Z " fill="#DF7361" transform="translate(31,43)"/>
<path d="M0 0 C-0.56371414 3.26954202 -1.49962266 4.82575883 -4 7 C-4 6.01 -4 5.02 -4 4 C-4.66 3.67 -5.32 3.34 -6 3 C-2.25 0 -2.25 0 0 0 Z " fill="#E55138" transform="translate(59,64)"/>
<path d="M0 0 C0.33 0.66 0.66 1.32 1 2 C1.99 2 2.98 2 4 2 C4 3.32 4 4.64 4 6 C2.68 5.67 1.36 5.34 0 5 C-0.5625 3.0625 -0.5625 3.0625 -1 1 C-0.67 0.67 -0.34 0.34 0 0 Z " fill="#28B4A5" transform="translate(140,67)"/>
<path d="M0 0 C0.33 0.99 0.66 1.98 1 3 C1.99 3.33 2.98 3.66 4 4 C1.8614515 6.1385485 0.86724686 6.42655063 -2 7 C-2 5.02 -2 3.04 -2 1 C-1.34 0.67 -0.68 0.34 0 0 Z " fill="#BAB1A4" transform="translate(109,32)"/>
<path d="M0 0 C0.33 0.66 0.66 1.32 1 2 C2.32 2 3.64 2 5 2 C5 2.66 5 3.32 5 4 C3.02 4.99 3.02 4.99 1 6 C0.67 5.34 0.34 4.68 0 4 C-0.66 3.67 -1.32 3.34 -2 3 C-1.34 2.01 -0.68 1.02 0 0 Z " fill="#E7705A" transform="translate(70,44)"/>
<path d="M0 0 C1.65 0 3.3 0 5 0 C4.01 0.495 4.01 0.495 3 1 C3 1.66 3 2.32 3 3 C1.02 3.99 1.02 3.99 -1 5 C-1 4.34 -1 3.68 -1 3 C-1.66 2.67 -2.32 2.34 -3 2 C-2.01 2 -1.02 2 0 2 C0 1.34 0 0.68 0 0 Z " fill="#C05A3D" transform="translate(113,25)"/>
<path d="M0 0 C2.64 0.33 5.28 0.66 8 1 C8 1.66 8 2.32 8 3 C5.6568787 2.74438677 3.32156597 2.40729228 1 2 C0.67 1.34 0.34 0.68 0 0 Z " fill="#CA7B6C" transform="translate(137,5)"/>
</svg>
